<mxfile host="app.diagrams.net" modified="2024-02-17T17:03:00.195Z" agent="Mozilla/5.0 (Macintosh; Intel Mac OS X 10_15_7) AppleWebKit/537.36 (KHTML, like Gecko) Chrome/121.0.0.0 Safari/537.36" etag="GBRX6y7iZwpmMqhDPXnW" version="23.1.4" type="device">
  <diagram name="Page-1" id="OV1EkgWZ-rDWqBJiTAyk">
    <mxGraphModel dx="2467" dy="922" grid="1" gridSize="10" guides="1" tooltips="1" connect="1" arrows="1" fold="1" page="1" pageScale="1" pageWidth="827" pageHeight="1169" math="0" shadow="0">
      <root>
        <mxCell id="0" />
        <mxCell id="1" parent="0" />
        <mxCell id="npT1vmYO0gsNKlDN6Fjx-8" style="edgeStyle=orthogonalEdgeStyle;rounded=0;orthogonalLoop=1;jettySize=auto;html=1;" edge="1" parent="1" source="npT1vmYO0gsNKlDN6Fjx-1" target="npT1vmYO0gsNKlDN6Fjx-6">
          <mxGeometry relative="1" as="geometry">
            <Array as="points">
              <mxPoint x="160" y="125" />
              <mxPoint x="160" y="284" />
            </Array>
          </mxGeometry>
        </mxCell>
        <mxCell id="npT1vmYO0gsNKlDN6Fjx-1" value="EMR systems" style="sketch=0;points=[[0,0,0],[0.25,0,0],[0.5,0,0],[0.75,0,0],[1,0,0],[0,1,0],[0.25,1,0],[0.5,1,0],[0.75,1,0],[1,1,0],[0,0.25,0],[0,0.5,0],[0,0.75,0],[1,0.25,0],[1,0.5,0],[1,0.75,0]];outlineConnect=0;fontColor=#232F3E;fillColor=#8C4FFF;strokeColor=#ffffff;dashed=0;verticalLabelPosition=bottom;verticalAlign=top;align=center;html=1;fontSize=12;fontStyle=0;aspect=fixed;shape=mxgraph.aws4.resourceIcon;resIcon=mxgraph.aws4.emr;" vertex="1" parent="1">
          <mxGeometry x="30" y="100" width="50" height="50" as="geometry" />
        </mxCell>
        <mxCell id="npT1vmYO0gsNKlDN6Fjx-9" style="edgeStyle=orthogonalEdgeStyle;rounded=0;orthogonalLoop=1;jettySize=auto;html=1;" edge="1" parent="1" source="npT1vmYO0gsNKlDN6Fjx-2" target="npT1vmYO0gsNKlDN6Fjx-6">
          <mxGeometry relative="1" as="geometry" />
        </mxCell>
        <mxCell id="npT1vmYO0gsNKlDN6Fjx-2" value="Diagnostic &lt;br&gt;imaging systems" style="image;sketch=0;aspect=fixed;html=1;points=[];align=center;fontSize=12;image=img/lib/mscae/LogDiagnostics.svg;" vertex="1" parent="1">
          <mxGeometry x="32.5" y="200" width="45" height="50" as="geometry" />
        </mxCell>
        <mxCell id="npT1vmYO0gsNKlDN6Fjx-10" style="edgeStyle=orthogonalEdgeStyle;rounded=0;orthogonalLoop=1;jettySize=auto;html=1;" edge="1" parent="1" source="npT1vmYO0gsNKlDN6Fjx-3" target="npT1vmYO0gsNKlDN6Fjx-6">
          <mxGeometry relative="1" as="geometry" />
        </mxCell>
        <mxCell id="npT1vmYO0gsNKlDN6Fjx-3" value="Wearable &lt;br&gt;devices" style="shape=image;html=1;verticalAlign=top;verticalLabelPosition=bottom;labelBackgroundColor=#ffffff;imageAspect=0;aspect=fixed;image=https://cdn0.iconfinder.com/data/icons/devices-42/1600/Watch_2-128.png;imageBorder=default;" vertex="1" parent="1">
          <mxGeometry x="10" y="300" width="90" height="90" as="geometry" />
        </mxCell>
        <mxCell id="npT1vmYO0gsNKlDN6Fjx-11" style="edgeStyle=orthogonalEdgeStyle;rounded=0;orthogonalLoop=1;jettySize=auto;html=1;" edge="1" parent="1" source="npT1vmYO0gsNKlDN6Fjx-4" target="npT1vmYO0gsNKlDN6Fjx-6">
          <mxGeometry relative="1" as="geometry">
            <Array as="points">
              <mxPoint x="170" y="484" />
              <mxPoint x="170" y="284" />
            </Array>
          </mxGeometry>
        </mxCell>
        <mxCell id="npT1vmYO0gsNKlDN6Fjx-12" value="Extract, &lt;br&gt;Transform, &lt;br&gt;and Load patient data" style="edgeLabel;html=1;align=center;verticalAlign=middle;resizable=0;points=[];" vertex="1" connectable="0" parent="npT1vmYO0gsNKlDN6Fjx-11">
          <mxGeometry x="0.7188" y="-2" relative="1" as="geometry">
            <mxPoint as="offset" />
          </mxGeometry>
        </mxCell>
        <mxCell id="npT1vmYO0gsNKlDN6Fjx-4" value="Genomic &lt;br&gt;databases" style="image;aspect=fixed;html=1;points=[];align=center;fontSize=12;image=img/lib/azure2/ai_machine_learning/Genomics.svg;" vertex="1" parent="1">
          <mxGeometry x="37" y="450" width="36" height="68" as="geometry" />
        </mxCell>
        <mxCell id="npT1vmYO0gsNKlDN6Fjx-15" style="edgeStyle=orthogonalEdgeStyle;rounded=0;orthogonalLoop=1;jettySize=auto;html=1;" edge="1" parent="1" source="npT1vmYO0gsNKlDN6Fjx-5" target="npT1vmYO0gsNKlDN6Fjx-14">
          <mxGeometry relative="1" as="geometry" />
        </mxCell>
        <mxCell id="npT1vmYO0gsNKlDN6Fjx-39" style="edgeStyle=orthogonalEdgeStyle;rounded=0;orthogonalLoop=1;jettySize=auto;html=1;dashed=1;dashPattern=8 8;" edge="1" parent="1" source="npT1vmYO0gsNKlDN6Fjx-5" target="npT1vmYO0gsNKlDN6Fjx-34">
          <mxGeometry relative="1" as="geometry">
            <Array as="points">
              <mxPoint x="600" y="92" />
            </Array>
          </mxGeometry>
        </mxCell>
        <mxCell id="npT1vmYO0gsNKlDN6Fjx-40" value="RBAC" style="edgeLabel;html=1;align=center;verticalAlign=middle;resizable=0;points=[];" vertex="1" connectable="0" parent="npT1vmYO0gsNKlDN6Fjx-39">
          <mxGeometry x="0.1639" y="3" relative="1" as="geometry">
            <mxPoint as="offset" />
          </mxGeometry>
        </mxCell>
        <mxCell id="npT1vmYO0gsNKlDN6Fjx-5" value="Azure Blob &lt;br&gt;Storage" style="image;sketch=0;aspect=fixed;html=1;points=[];align=center;fontSize=12;image=img/lib/mscae/BlobBlock.svg;" vertex="1" parent="1">
          <mxGeometry x="570" y="263" width="50" height="42" as="geometry" />
        </mxCell>
        <mxCell id="npT1vmYO0gsNKlDN6Fjx-13" style="edgeStyle=orthogonalEdgeStyle;rounded=0;orthogonalLoop=1;jettySize=auto;html=1;" edge="1" parent="1" source="npT1vmYO0gsNKlDN6Fjx-6" target="npT1vmYO0gsNKlDN6Fjx-5">
          <mxGeometry relative="1" as="geometry" />
        </mxCell>
        <mxCell id="npT1vmYO0gsNKlDN6Fjx-35" style="edgeStyle=orthogonalEdgeStyle;rounded=0;orthogonalLoop=1;jettySize=auto;html=1;dashed=1;dashPattern=8 8;" edge="1" parent="1" source="npT1vmYO0gsNKlDN6Fjx-6" target="npT1vmYO0gsNKlDN6Fjx-34">
          <mxGeometry relative="1" as="geometry">
            <Array as="points" />
          </mxGeometry>
        </mxCell>
        <mxCell id="npT1vmYO0gsNKlDN6Fjx-36" value="role-based access controls (RBAC)" style="edgeLabel;html=1;align=center;verticalAlign=middle;resizable=0;points=[];" vertex="1" connectable="0" parent="npT1vmYO0gsNKlDN6Fjx-35">
          <mxGeometry x="0.1683" relative="1" as="geometry">
            <mxPoint as="offset" />
          </mxGeometry>
        </mxCell>
        <mxCell id="npT1vmYO0gsNKlDN6Fjx-6" value="Azure Data Factory" style="image;aspect=fixed;html=1;points=[];align=center;fontSize=12;image=img/lib/azure2/databases/Data_Factory.svg;" vertex="1" parent="1">
          <mxGeometry x="440" y="250" width="68" height="68" as="geometry" />
        </mxCell>
        <mxCell id="npT1vmYO0gsNKlDN6Fjx-20" style="edgeStyle=orthogonalEdgeStyle;rounded=0;orthogonalLoop=1;jettySize=auto;html=1;entryX=0;entryY=0.5;entryDx=0;entryDy=0;" edge="1" parent="1" source="npT1vmYO0gsNKlDN6Fjx-14" target="npT1vmYO0gsNKlDN6Fjx-16">
          <mxGeometry relative="1" as="geometry">
            <Array as="points">
              <mxPoint x="750" y="284" />
              <mxPoint x="750" y="140" />
            </Array>
          </mxGeometry>
        </mxCell>
        <mxCell id="npT1vmYO0gsNKlDN6Fjx-22" style="edgeStyle=orthogonalEdgeStyle;rounded=0;orthogonalLoop=1;jettySize=auto;html=1;" edge="1" parent="1" source="npT1vmYO0gsNKlDN6Fjx-14" target="npT1vmYO0gsNKlDN6Fjx-19">
          <mxGeometry relative="1" as="geometry" />
        </mxCell>
        <mxCell id="npT1vmYO0gsNKlDN6Fjx-26" style="edgeStyle=orthogonalEdgeStyle;rounded=0;orthogonalLoop=1;jettySize=auto;html=1;" edge="1" parent="1" source="npT1vmYO0gsNKlDN6Fjx-14" target="npT1vmYO0gsNKlDN6Fjx-25">
          <mxGeometry relative="1" as="geometry">
            <Array as="points">
              <mxPoint x="704" y="350" />
            </Array>
          </mxGeometry>
        </mxCell>
        <mxCell id="npT1vmYO0gsNKlDN6Fjx-41" style="edgeStyle=orthogonalEdgeStyle;rounded=0;orthogonalLoop=1;jettySize=auto;html=1;dashed=1;dashPattern=8 8;" edge="1" parent="1" source="npT1vmYO0gsNKlDN6Fjx-14" target="npT1vmYO0gsNKlDN6Fjx-34">
          <mxGeometry relative="1" as="geometry">
            <mxPoint x="680" y="80" as="targetPoint" />
            <Array as="points">
              <mxPoint x="700" y="92" />
            </Array>
          </mxGeometry>
        </mxCell>
        <mxCell id="npT1vmYO0gsNKlDN6Fjx-42" value="RBAC" style="edgeLabel;html=1;align=center;verticalAlign=middle;resizable=0;points=[];" vertex="1" connectable="0" parent="npT1vmYO0gsNKlDN6Fjx-41">
          <mxGeometry x="-0.1202" y="3" relative="1" as="geometry">
            <mxPoint as="offset" />
          </mxGeometry>
        </mxCell>
        <mxCell id="npT1vmYO0gsNKlDN6Fjx-14" value="Azure Cognitive &lt;br&gt;Services" style="image;aspect=fixed;html=1;points=[];align=center;fontSize=12;image=img/lib/azure2/ai_machine_learning/Cognitive_Services.svg;" vertex="1" parent="1">
          <mxGeometry x="670" y="260" width="68" height="48" as="geometry" />
        </mxCell>
        <mxCell id="npT1vmYO0gsNKlDN6Fjx-21" style="edgeStyle=orthogonalEdgeStyle;rounded=0;orthogonalLoop=1;jettySize=auto;html=1;" edge="1" parent="1" source="npT1vmYO0gsNKlDN6Fjx-16" target="npT1vmYO0gsNKlDN6Fjx-18">
          <mxGeometry relative="1" as="geometry" />
        </mxCell>
        <mxCell id="npT1vmYO0gsNKlDN6Fjx-16" value="" style="strokeColor=#dddddd;shadow=1;strokeWidth=1;rounded=1;absoluteArcSize=1;arcSize=2;" vertex="1" parent="1">
          <mxGeometry x="770" y="110" width="150" height="60" as="geometry" />
        </mxCell>
        <mxCell id="npT1vmYO0gsNKlDN6Fjx-17" value="Natural&#xa;Language API" style="editableCssRules=.*;html=1;fontColor=#999999;shape=image;verticalLabelPosition=middle;verticalAlign=middle;labelPosition=right;align=left;spacingLeft=20;part=1;points=[];imageAspect=0;image=data:image/svg+xml,PHN2ZyB4bWxucz0iaHR0cDovL3d3dy53My5vcmcvMjAwMC9zdmciIHhtbG5zOnY9Imh0dHBzOi8vdmVjdGEuaW8vbmFubyIgd2lkdGg9IjIwIiBoZWlnaHQ9IjE2IiB2aWV3Qm94PSIwIDAgMjAgMTYiPiYjeGE7CTxzdHlsZSB0eXBlPSJ0ZXh0L2NzcyI+JiN4YTsJLnN0MHtmaWxsOiM2NjlkZjY7fSYjeGE7CS5zdDF7ZmlsbDojNDI4NWY0O30mI3hhOwkuc3Qye2ZpbGw6I2FlY2JmYTt9JiN4YTsJPC9zdHlsZT4mI3hhOwk8cGF0aCBjbGFzcz0ic3QwIiBkPSJNMTUgMmgzdjEyaC0zdjJoMyAydi0yVjIgMGgtMi0zeiIvPiYjeGE7CTxwYXRoIGNsYXNzPSJzdDEiIGQ9Ik0xOCAydjFsMi0xem0yIDEydi0xbC0yIDF6Ii8+JiN4YTsJPHBhdGggY2xhc3M9InN0MCIgZD0iTTUgMTRIMlYyaDNWMEgyIDB2MiAxMiAyaDIgM3oiLz4mI3hhOwk8cGF0aCBjbGFzcz0ic3QxIiBkPSJNMCAxNHYtMWwyIDF6TTIgMnYxTDAgMnoiLz4mI3hhOwk8cGF0aCBjbGFzcz0ic3QyIiBkPSJNNSA3aDEwdjJINXptMCAzaDEwdjJINXptMC02aDEwdjJINXoiLz4mI3hhOzwvc3ZnPg==;" vertex="1" parent="npT1vmYO0gsNKlDN6Fjx-16">
          <mxGeometry width="30" height="24" relative="1" as="geometry">
            <mxPoint x="15" y="18" as="offset" />
          </mxGeometry>
        </mxCell>
        <mxCell id="npT1vmYO0gsNKlDN6Fjx-18" value="Medical notes &lt;br&gt;and reports" style="shape=mxgraph.signs.healthcare.medical_records;html=1;pointerEvents=1;fillColor=#000000;strokeColor=none;verticalLabelPosition=bottom;verticalAlign=top;align=center;" vertex="1" parent="1">
          <mxGeometry x="1010" y="105" width="70" height="70" as="geometry" />
        </mxCell>
        <mxCell id="npT1vmYO0gsNKlDN6Fjx-24" style="edgeStyle=orthogonalEdgeStyle;rounded=0;orthogonalLoop=1;jettySize=auto;html=1;" edge="1" parent="1" source="npT1vmYO0gsNKlDN6Fjx-19" target="npT1vmYO0gsNKlDN6Fjx-23">
          <mxGeometry relative="1" as="geometry" />
        </mxCell>
        <mxCell id="npT1vmYO0gsNKlDN6Fjx-43" style="edgeStyle=orthogonalEdgeStyle;rounded=0;orthogonalLoop=1;jettySize=auto;html=1;dashed=1;dashPattern=8 8;" edge="1" parent="1" source="npT1vmYO0gsNKlDN6Fjx-19" target="npT1vmYO0gsNKlDN6Fjx-34">
          <mxGeometry relative="1" as="geometry">
            <Array as="points">
              <mxPoint x="740" y="265" />
              <mxPoint x="740" y="92" />
            </Array>
          </mxGeometry>
        </mxCell>
        <mxCell id="npT1vmYO0gsNKlDN6Fjx-19" value="" style="image;aspect=fixed;html=1;points=[];align=center;fontSize=12;image=img/lib/azure2/ai_machine_learning/Computer_Vision.svg;" vertex="1" parent="1">
          <mxGeometry x="811" y="240" width="50" height="50" as="geometry" />
        </mxCell>
        <mxCell id="npT1vmYO0gsNKlDN6Fjx-23" value="Diagnostic images" style="outlineConnect=0;dashed=0;verticalLabelPosition=bottom;verticalAlign=top;align=center;html=1;shape=mxgraph.aws3.x_ray;fillColor=#759C3E;gradientColor=none;" vertex="1" parent="1">
          <mxGeometry x="1010" y="235" width="56.5" height="60" as="geometry" />
        </mxCell>
        <mxCell id="npT1vmYO0gsNKlDN6Fjx-29" style="edgeStyle=orthogonalEdgeStyle;rounded=0;orthogonalLoop=1;jettySize=auto;html=1;" edge="1" parent="1" source="npT1vmYO0gsNKlDN6Fjx-25" target="npT1vmYO0gsNKlDN6Fjx-28">
          <mxGeometry relative="1" as="geometry">
            <Array as="points">
              <mxPoint x="965" y="430" />
            </Array>
          </mxGeometry>
        </mxCell>
        <mxCell id="npT1vmYO0gsNKlDN6Fjx-25" value="Personalized treatment &lt;br&gt;recommendations" style="image;aspect=fixed;html=1;points=[];align=center;fontSize=12;image=img/lib/azure2/ai_machine_learning/Personalizers.svg;" vertex="1" parent="1">
          <mxGeometry x="939.9999999999999" y="340" width="49.27" height="40" as="geometry" />
        </mxCell>
        <mxCell id="npT1vmYO0gsNKlDN6Fjx-38" style="edgeStyle=orthogonalEdgeStyle;rounded=0;orthogonalLoop=1;jettySize=auto;html=1;dashed=1;dashPattern=8 8;" edge="1" parent="1" source="npT1vmYO0gsNKlDN6Fjx-28" target="npT1vmYO0gsNKlDN6Fjx-34">
          <mxGeometry relative="1" as="geometry">
            <Array as="points">
              <mxPoint x="540" y="430" />
              <mxPoint x="540" y="262" />
              <mxPoint x="505" y="262" />
            </Array>
          </mxGeometry>
        </mxCell>
        <mxCell id="npT1vmYO0gsNKlDN6Fjx-28" value="Azure API &lt;br&gt;Management" style="image;aspect=fixed;html=1;points=[];align=center;fontSize=12;image=img/lib/azure2/app_services/API_Management_Services.svg;" vertex="1" parent="1">
          <mxGeometry x="430" y="400" width="65" height="60" as="geometry" />
        </mxCell>
        <mxCell id="npT1vmYO0gsNKlDN6Fjx-30" style="edgeStyle=orthogonalEdgeStyle;rounded=0;orthogonalLoop=1;jettySize=auto;html=1;entryX=0;entryY=0.5;entryDx=0;entryDy=0;entryPerimeter=0;dashed=1;" edge="1" parent="1" source="npT1vmYO0gsNKlDN6Fjx-28" target="npT1vmYO0gsNKlDN6Fjx-1">
          <mxGeometry relative="1" as="geometry">
            <Array as="points">
              <mxPoint x="463" y="570" />
              <mxPoint x="-20" y="570" />
              <mxPoint x="-20" y="125" />
            </Array>
          </mxGeometry>
        </mxCell>
        <mxCell id="npT1vmYO0gsNKlDN6Fjx-31" value="Patient portals" style="image;aspect=fixed;html=1;points=[];align=center;fontSize=12;image=img/lib/azure2/app_services/App_Service_Domains.svg;" vertex="1" parent="1">
          <mxGeometry x="1120" y="334" width="45" height="36" as="geometry" />
        </mxCell>
        <mxCell id="npT1vmYO0gsNKlDN6Fjx-32" value="Clinical decision &lt;br&gt;support tools" style="sketch=0;points=[[0,0,0],[0.25,0,0],[0.5,0,0],[0.75,0,0],[1,0,0],[0,1,0],[0.25,1,0],[0.5,1,0],[0.75,1,0],[1,1,0],[0,0.25,0],[0,0.5,0],[0,0.75,0],[1,0.25,0],[1,0.5,0],[1,0.75,0]];outlineConnect=0;fontColor=#232F3E;fillColor=#C925D1;strokeColor=#ffffff;dashed=0;verticalLabelPosition=bottom;verticalAlign=top;align=center;html=1;fontSize=12;fontStyle=0;aspect=fixed;shape=mxgraph.aws4.resourceIcon;resIcon=mxgraph.aws4.support;" vertex="1" parent="1">
          <mxGeometry x="1122.5" y="410" width="40" height="40" as="geometry" />
        </mxCell>
        <mxCell id="npT1vmYO0gsNKlDN6Fjx-33" value="Telemedicine &lt;br&gt;platforms" style="image;aspect=fixed;perimeter=ellipsePerimeter;html=1;align=center;shadow=0;dashed=0;spacingTop=3;image=img/lib/active_directory/phone.svg;" vertex="1" parent="1">
          <mxGeometry x="1117.5" y="500" width="50" height="39.5" as="geometry" />
        </mxCell>
        <mxCell id="npT1vmYO0gsNKlDN6Fjx-34" value="" style="image;aspect=fixed;html=1;points=[];align=center;fontSize=12;image=img/lib/azure2/identity/Azure_Active_Directory.svg;" vertex="1" parent="1">
          <mxGeometry x="470" y="60" width="70" height="64" as="geometry" />
        </mxCell>
        <mxCell id="npT1vmYO0gsNKlDN6Fjx-44" style="edgeStyle=orthogonalEdgeStyle;rounded=0;orthogonalLoop=1;jettySize=auto;html=1;entryX=0.998;entryY=0.313;entryDx=0;entryDy=0;entryPerimeter=0;dashed=1;dashPattern=8 8;" edge="1" parent="1" source="npT1vmYO0gsNKlDN6Fjx-16" target="npT1vmYO0gsNKlDN6Fjx-34">
          <mxGeometry relative="1" as="geometry">
            <Array as="points">
              <mxPoint x="860" y="80" />
            </Array>
          </mxGeometry>
        </mxCell>
        <mxCell id="npT1vmYO0gsNKlDN6Fjx-45" value="RBAC" style="edgeLabel;html=1;align=center;verticalAlign=middle;resizable=0;points=[];" vertex="1" connectable="0" parent="npT1vmYO0gsNKlDN6Fjx-44">
          <mxGeometry x="-0.4035" y="1" relative="1" as="geometry">
            <mxPoint as="offset" />
          </mxGeometry>
        </mxCell>
        <mxCell id="npT1vmYO0gsNKlDN6Fjx-46" style="edgeStyle=orthogonalEdgeStyle;rounded=0;orthogonalLoop=1;jettySize=auto;html=1;entryX=0.488;entryY=0;entryDx=0;entryDy=0;entryPerimeter=0;dashed=1;dashPattern=8 8;" edge="1" parent="1" source="npT1vmYO0gsNKlDN6Fjx-25" target="npT1vmYO0gsNKlDN6Fjx-34">
          <mxGeometry relative="1" as="geometry">
            <Array as="points">
              <mxPoint x="960" y="40" />
              <mxPoint x="504" y="40" />
            </Array>
          </mxGeometry>
        </mxCell>
        <mxCell id="npT1vmYO0gsNKlDN6Fjx-48" value="RBAC" style="edgeLabel;html=1;align=center;verticalAlign=middle;resizable=0;points=[];" vertex="1" connectable="0" parent="npT1vmYO0gsNKlDN6Fjx-46">
          <mxGeometry x="0.0536" y="4" relative="1" as="geometry">
            <mxPoint as="offset" />
          </mxGeometry>
        </mxCell>
        <mxCell id="npT1vmYO0gsNKlDN6Fjx-53" style="edgeStyle=orthogonalEdgeStyle;rounded=0;orthogonalLoop=1;jettySize=auto;html=1;dashed=1;" edge="1" parent="1" source="npT1vmYO0gsNKlDN6Fjx-49" target="npT1vmYO0gsNKlDN6Fjx-23">
          <mxGeometry relative="1" as="geometry">
            <Array as="points">
              <mxPoint x="1220" y="84" />
              <mxPoint x="1220" y="265" />
            </Array>
          </mxGeometry>
        </mxCell>
        <mxCell id="npT1vmYO0gsNKlDN6Fjx-55" style="edgeStyle=orthogonalEdgeStyle;rounded=0;orthogonalLoop=1;jettySize=auto;html=1;dashed=1;" edge="1" parent="1" source="npT1vmYO0gsNKlDN6Fjx-49" target="npT1vmYO0gsNKlDN6Fjx-31">
          <mxGeometry relative="1" as="geometry" />
        </mxCell>
        <mxCell id="npT1vmYO0gsNKlDN6Fjx-57" style="edgeStyle=orthogonalEdgeStyle;rounded=0;orthogonalLoop=1;jettySize=auto;html=1;entryX=0.5;entryY=1;entryDx=0;entryDy=0;dashed=1;" edge="1" parent="1" source="npT1vmYO0gsNKlDN6Fjx-49" target="npT1vmYO0gsNKlDN6Fjx-33">
          <mxGeometry relative="1" as="geometry" />
        </mxCell>
        <mxCell id="npT1vmYO0gsNKlDN6Fjx-49" value="Healthcare professionals" style="image;html=1;image=img/lib/clip_art/people/Doctor_Man_128x128.png" vertex="1" parent="1">
          <mxGeometry x="1350" y="44" width="80" height="80" as="geometry" />
        </mxCell>
        <mxCell id="npT1vmYO0gsNKlDN6Fjx-58" style="edgeStyle=orthogonalEdgeStyle;rounded=0;orthogonalLoop=1;jettySize=auto;html=1;dashed=1;" edge="1" parent="1" source="npT1vmYO0gsNKlDN6Fjx-50" target="npT1vmYO0gsNKlDN6Fjx-31">
          <mxGeometry relative="1" as="geometry" />
        </mxCell>
        <mxCell id="npT1vmYO0gsNKlDN6Fjx-60" style="edgeStyle=orthogonalEdgeStyle;rounded=0;orthogonalLoop=1;jettySize=auto;html=1;entryX=1;entryY=0.5;entryDx=0;entryDy=0;dashed=1;" edge="1" parent="1" source="npT1vmYO0gsNKlDN6Fjx-50" target="npT1vmYO0gsNKlDN6Fjx-33">
          <mxGeometry relative="1" as="geometry">
            <Array as="points">
              <mxPoint x="1260" y="208" />
              <mxPoint x="1260" y="520" />
            </Array>
          </mxGeometry>
        </mxCell>
        <mxCell id="npT1vmYO0gsNKlDN6Fjx-50" value="Patients" style="shape=image;html=1;verticalAlign=top;verticalLabelPosition=bottom;labelBackgroundColor=#ffffff;imageAspect=0;aspect=fixed;image=https://cdn3.iconfinder.com/data/icons/developerkit/png/Users.png" vertex="1" parent="1">
          <mxGeometry x="1352.5" y="170" width="75" height="75" as="geometry" />
        </mxCell>
        <mxCell id="npT1vmYO0gsNKlDN6Fjx-51" style="edgeStyle=orthogonalEdgeStyle;rounded=0;orthogonalLoop=1;jettySize=auto;html=1;entryX=1;entryY=0.5;entryDx=0;entryDy=0;entryPerimeter=0;startArrow=classic;startFill=1;dashed=1;" edge="1" parent="1" source="npT1vmYO0gsNKlDN6Fjx-49" target="npT1vmYO0gsNKlDN6Fjx-18">
          <mxGeometry relative="1" as="geometry" />
        </mxCell>
        <mxCell id="npT1vmYO0gsNKlDN6Fjx-52" style="edgeStyle=orthogonalEdgeStyle;rounded=0;orthogonalLoop=1;jettySize=auto;html=1;entryX=1;entryY=0.5;entryDx=0;entryDy=0;entryPerimeter=0;dashed=1;" edge="1" parent="1" source="npT1vmYO0gsNKlDN6Fjx-50" target="npT1vmYO0gsNKlDN6Fjx-18">
          <mxGeometry relative="1" as="geometry" />
        </mxCell>
        <mxCell id="npT1vmYO0gsNKlDN6Fjx-54" style="edgeStyle=orthogonalEdgeStyle;rounded=0;orthogonalLoop=1;jettySize=auto;html=1;entryX=0.86;entryY=0.5;entryDx=0;entryDy=0;entryPerimeter=0;dashed=1;" edge="1" parent="1" source="npT1vmYO0gsNKlDN6Fjx-50" target="npT1vmYO0gsNKlDN6Fjx-23">
          <mxGeometry relative="1" as="geometry" />
        </mxCell>
        <mxCell id="npT1vmYO0gsNKlDN6Fjx-56" style="edgeStyle=orthogonalEdgeStyle;rounded=0;orthogonalLoop=1;jettySize=auto;html=1;entryX=0.75;entryY=1;entryDx=0;entryDy=0;entryPerimeter=0;dashed=1;" edge="1" parent="1" source="npT1vmYO0gsNKlDN6Fjx-49" target="npT1vmYO0gsNKlDN6Fjx-32">
          <mxGeometry relative="1" as="geometry" />
        </mxCell>
        <mxCell id="npT1vmYO0gsNKlDN6Fjx-59" style="edgeStyle=orthogonalEdgeStyle;rounded=0;orthogonalLoop=1;jettySize=auto;html=1;entryX=1;entryY=0.5;entryDx=0;entryDy=0;entryPerimeter=0;dashed=1;" edge="1" parent="1" source="npT1vmYO0gsNKlDN6Fjx-50" target="npT1vmYO0gsNKlDN6Fjx-32">
          <mxGeometry relative="1" as="geometry" />
        </mxCell>
        <mxCell id="npT1vmYO0gsNKlDN6Fjx-61" value="Continuous improvement and &lt;br&gt;innovation&lt;br&gt;&amp;amp;&lt;br&gt;Patient care and&lt;br&gt;clinical workflows" style="text;html=1;align=center;verticalAlign=middle;resizable=0;points=[];autosize=1;strokeColor=none;fillColor=none;" vertex="1" parent="1">
          <mxGeometry x="1280" y="334" width="180" height="90" as="geometry" />
        </mxCell>
      </root>
    </mxGraphModel>
  </diagram>
</mxfile>
